<svg width="22" height="19" viewBox="0 0 22 19" fill="none" xmlns="http://www.w3.org/2000/svg">
<path fill-rule="evenodd" clip-rule="evenodd" d="M9.05176 4.86841C9.05176 2.17967 11.2314 0 13.9202 0C16.6089 0 18.7886 2.17967 18.7886 4.86841C18.7886 7.55719 16.6089 9.73685 13.9202 9.73685C11.2314 9.73685 9.05176 7.55719 9.05176 4.86841ZM13.9202 1.94736C12.3069 1.94736 10.9991 3.25518 10.9991 4.86841C10.9991 6.48168 12.3069 7.78947 13.9202 7.78947C15.5334 7.78947 16.8412 6.48168 16.8412 4.86841C16.8412 3.25518 15.5334 1.94736 13.9202 1.94736Z" fill="black"/>
<path d="M4.18381 4.86841C4.72154 4.86841 5.15748 5.30435 5.15748 5.8421V7.78946H7.10486C7.64259 7.78946 8.07853 8.2254 8.07853 8.76315C8.07853 9.30091 7.64259 9.73684 7.10486 9.73684H5.15748V11.6842C5.15748 12.222 4.72154 12.6579 4.18381 12.6579C3.64606 12.6579 3.21012 12.222 3.21012 11.6842V9.73684H1.26275C0.724996 9.73684 0.289062 9.30091 0.289062 8.76315C0.289062 8.2254 0.724996 7.78946 1.26275 7.78946H3.21012V5.8421C3.21012 5.30435 3.64606 4.86841 4.18381 4.86841Z" fill="black"/>
<path fill-rule="evenodd" clip-rule="evenodd" d="M13.9203 10.7104C11.979 10.7104 10.1185 10.958 8.70569 11.5854C7.26535 12.2249 6.13086 13.3532 6.13086 15.092C6.13086 15.5465 6.21386 16.0636 6.52298 16.5567C6.83208 17.0498 7.30692 17.4229 7.9203 17.7004C9.09755 18.233 10.9836 18.4999 13.9203 18.4999C16.8571 18.4999 18.7431 18.233 19.9204 17.7004C20.5337 17.4229 21.0086 17.0498 21.3177 16.5567C21.6268 16.0636 21.7098 15.5465 21.7098 15.092C21.7098 13.3532 20.5753 12.2249 19.135 11.5854C17.7221 10.958 15.8617 10.7104 13.9203 10.7104ZM8.07822 15.092C8.07822 14.3966 8.4695 13.821 9.49601 13.3651C10.55 12.8971 12.0974 12.6578 13.9203 12.6578C15.7432 12.6578 17.2907 12.8971 18.3447 13.3651C19.3712 13.821 19.7624 14.3966 19.7624 15.092C19.7624 15.3098 19.7237 15.433 19.6677 15.5224C19.6117 15.6118 19.478 15.7631 19.1177 15.9262C18.3475 16.2746 16.8257 16.5526 13.9203 16.5526C11.015 16.5526 9.49311 16.2746 8.72298 15.9262C8.36268 15.7631 8.22899 15.6118 8.17296 15.5224C8.11694 15.433 8.07822 15.3098 8.07822 15.092Z" fill="black"/>
</svg>
