<svg width="23" height="25" viewBox="0 0 23 25" fill="none" xmlns="http://www.w3.org/2000/svg">
<path d="M13.6455 22.2168C14.2057 22.2169 14.6621 22.6732 14.6621 23.2334C14.6621 23.7936 14.2057 24.2499 13.6455 24.25H9.8125C9.25224 24.25 8.79592 23.7937 8.7959 23.2334C8.7959 22.6731 9.2522 22.2168 9.8125 22.2168H13.6455Z" fill="#242424" stroke="#242424" stroke-width="0.5"/>
<path d="M11.7305 0.75C15.6322 0.75 18.947 3.66704 19.4375 7.54102L19.7822 10.2734C19.8561 10.8576 20.1255 11.4087 20.543 11.8262L21.6973 12.9834C22.3485 13.6363 22.7089 14.5035 22.709 15.4248C22.709 17.3294 21.1604 18.8786 19.2559 18.8789H4.2041C2.29934 18.8789 0.75 17.3296 0.75 15.4248C0.75011 14.5038 1.11027 13.635 1.76172 12.9834L2.91602 11.8291C3.33358 11.4116 3.60386 10.8619 3.67773 10.2764L4.02148 7.54395L4.02832 7.49609L4.03027 7.49023C4.54455 3.64337 7.84573 0.750021 11.7305 0.75ZM11.7236 2.78613C8.8449 2.78627 6.39905 4.94141 6.03613 7.79883L5.69141 10.5303C5.56167 11.5587 5.08388 12.5314 4.35156 13.2637L3.19727 14.418C2.93214 14.6863 2.78038 15.0525 2.78027 15.4248C2.78027 16.2065 3.4159 16.8457 4.20117 16.8457H19.252C20.0336 16.8457 20.6729 16.2101 20.6729 15.4248C20.6727 15.0514 20.5181 14.6812 20.2549 14.418L19.1006 13.2637C18.3683 12.5314 17.8915 11.5587 17.7617 10.5303L17.417 7.79883V7.79785C17.0585 4.94263 14.612 2.78613 11.7285 2.78613H11.7236Z" fill="#242424" stroke="#242424" stroke-width="0.5"/>
</svg>
