<svg width="26" height="27" viewBox="0 0 26 27" fill="none" xmlns="http://www.w3.org/2000/svg">
<path fill-rule="evenodd" clip-rule="evenodd" d="M0.435977 7.93118C-0.266621 9.45309 -0.019985 11.2331 0.473287 14.7932L0.835688 17.4085C1.46932 21.9816 1.78614 24.2681 3.31373 25.6341C4.84131 27 7.08158 27 11.5621 27H14.4379C18.9184 27 21.1587 27 22.6863 25.6341C24.2138 24.2681 24.5306 21.9816 25.1644 17.4085L25.5267 14.7932C26.02 11.2331 26.2666 9.45309 25.564 7.93118C24.8615 6.40926 23.3659 5.48416 20.375 3.63394L18.5747 2.52027C15.8587 0.840091 14.5006 0 13 0C11.4994 0 10.1413 0.840091 7.42527 2.52027L5.62498 3.63394C2.63404 5.48416 1.13858 6.40926 0.435977 7.93118ZM13 22.6125C12.4615 22.6125 12.025 22.1592 12.025 21.6V17.55C12.025 16.9908 12.4615 16.5375 13 16.5375C13.5385 16.5375 13.975 16.9908 13.975 17.55V21.6C13.975 22.1592 13.5385 22.6125 13 22.6125Z" fill="#9BB416"/>
</svg>
