<svg width="21" height="23" viewBox="0 0 21 23" fill="none" xmlns="http://www.w3.org/2000/svg">
<path d="M10.3333 14.4167V16.75M4.5 9.20027C5.04999 9.16667 5.72802 9.16667 6.6 9.16667H14.0667C14.9386 9.16667 15.6167 9.16667 16.1667 9.20027M4.5 9.20027C3.81363 9.24215 3.32667 9.33642 2.91103 9.54817C2.25246 9.8837 1.71703 10.4191 1.38148 11.0777C1 11.8264 1 12.8064 1 14.7667V16.4C1 18.3602 1 19.3402 1.38148 20.089C1.71703 20.7476 2.25246 21.283 2.91103 21.6185C3.65972 22 4.63981 22 6.6 22H14.0667C16.0269 22 17.0069 22 17.7557 21.6185C18.4142 21.283 18.9496 20.7476 19.2852 20.089C19.6667 19.3402 19.6667 18.3602 19.6667 16.4V14.7667C19.6667 12.8064 19.6667 11.8264 19.2852 11.0777C18.9496 10.4191 18.4142 9.8837 17.7557 9.54817C17.34 9.33642 16.853 9.24215 16.1667 9.20027M4.5 9.20027V6.83333C4.5 3.61168 7.11168 1 10.3333 1C13.555 1 16.1667 3.61168 16.1667 6.83333V9.20027" stroke="black" stroke-width="1.5" stroke-linecap="round" stroke-linejoin="round"/>
</svg>
