<svg width="23" height="23" viewBox="0 0 23 23" fill="none" xmlns="http://www.w3.org/2000/svg">
<path d="M8.92435 2.72748L9.77616 4.25383C10.5449 5.63127 10.2363 7.43825 9.02554 8.64901C9.02554 8.64901 7.55709 10.1177 10.2197 12.7804C12.8814 15.4421 14.351 13.9745 14.351 13.9745C15.5618 12.7637 17.3687 12.4551 18.7462 13.2239L20.2725 14.0757C22.3525 15.2365 22.5981 18.1534 20.7699 19.9817C19.6714 21.0802 18.3255 21.9351 16.8378 21.9914C14.3334 22.0864 10.0803 21.4526 5.81386 17.1862C1.54749 12.9198 0.913653 8.66662 1.0086 6.16219C1.065 4.67448 1.9198 3.32868 3.01838 2.23012C4.84662 0.401866 7.76353 0.647515 8.92435 2.72748Z" stroke="black" stroke-width="1.5" stroke-linecap="round"/>
</svg>
