<svg width="16" height="21" viewBox="0 0 16 21" fill="none" xmlns="http://www.w3.org/2000/svg">
<path d="M2.72009 15.3721C3.25029 15.2099 3.80543 15.5295 3.96003 16.0863C4.11462 16.643 3.81012 17.2259 3.27991 17.3882C2.77914 17.5415 2.41926 17.7041 2.18866 17.8499C2.42735 18.0008 2.80251 18.1685 3.32497 18.3253C4.47958 18.6717 6.1328 18.9 8 18.9C9.8672 18.9 11.5204 18.6717 12.675 18.3253C13.1975 18.1685 13.5726 18.0008 13.8113 17.8499C13.5807 17.7041 13.2209 17.5415 12.7201 17.3882C12.1899 17.2259 11.8854 16.643 12.04 16.0863C12.1946 15.5295 12.7497 15.2099 13.2799 15.3721C13.948 15.5766 14.5608 15.8393 15.0293 16.1764C15.4655 16.4904 16 17.0375 16 17.8499C16 18.6727 15.4522 19.2236 15.0097 19.5374C14.5322 19.8761 13.9071 20.1397 13.2245 20.3445C11.8456 20.7582 9.9988 21 8 21C6.0012 21 4.15442 20.7582 2.77553 20.3445C2.09289 20.1397 1.46776 19.8761 0.99033 19.5374C0.54781 19.2236 0 18.6727 0 17.8499C0 17.0375 0.53454 16.4904 0.97068 16.1764C1.43918 15.8393 2.05202 15.5766 2.72009 15.3721ZM8 0C12.1421 0 15.5 3.52582 15.5 7.87516C15.5 10.5715 14.1005 12.7645 12.6502 14.3213C12.0353 14.9815 11.3907 15.5497 10.797 16.0182C10.2033 16.4866 8.8455 17.3637 8.8455 17.3637C8.3176 17.6768 7.6824 17.6768 7.1545 17.3637C6.6266 17.0506 5.79666 16.4866 5.20296 16.0182C4.60926 15.5497 3.96472 14.9815 3.34978 14.3213C1.89953 12.7645 0.5 10.5715 0.5 7.87516C0.5 3.52582 3.85786 0 8 0ZM8 5.77512C6.8954 5.77512 6 6.71534 6 7.87516C6 9.03501 6.8954 9.9752 8 9.9752C9.1046 9.9752 10 9.03501 10 7.87516C10 6.71534 9.1046 5.77512 8 5.77512Z" fill="black"/>
</svg>
