<svg width="20" height="20" viewBox="0 0 20 20" fill="none" xmlns="http://www.w3.org/2000/svg">
<path fill-rule="evenodd" clip-rule="evenodd" d="M5.34376 2.20495e-05C4.54907 -0.000229113 4.00376 -0.000396508 3.5191 0.124171C2.50152 0.385714 1.65022 1.04004 1.17712 1.92427C0.951784 2.34542 0.845016 2.84679 0.689424 3.57744L0.0746726 6.45942C-0.155115 7.53665 0.159751 8.57845 0.822385 9.35957V11.913C0.822365 13.6225 0.822355 14.9766 0.974316 16.0363C1.13071 17.1269 1.46023 18.0097 2.20274 18.7058C2.94524 19.402 3.88676 19.7109 5.05001 19.8576C6.18031 20 7.62455 20 9.44798 20H10.5521C12.3754 20 13.8197 20 14.95 19.8576C16.1132 19.7109 17.0548 19.402 17.7972 18.7058C18.5398 18.0097 18.8693 17.1269 19.0256 16.0363C19.1776 14.9766 19.1776 13.6225 19.1776 11.913V9.35957C19.8402 8.57845 20.1551 7.53666 19.9253 6.45942L19.3106 3.57744C19.155 2.84679 19.0483 2.34542 18.8229 1.92427C18.3498 1.04004 17.4985 0.385714 16.4809 0.124171C15.9962 -0.000396508 15.4509 -0.000229113 14.6562 2.20495e-05H5.34376ZM16.2194 10.6977C16.7441 10.6977 17.24 10.5986 17.6894 10.4209V11.8605C17.6894 13.6343 17.6878 14.8944 17.5507 15.8503C17.4164 16.7862 17.1648 17.3255 16.7449 17.7192C16.325 18.1128 15.7499 18.3488 14.7516 18.4746C14.3096 18.5303 13.8067 18.5622 13.2246 18.5804V16.0166C13.2246 15.6075 13.2246 15.2545 13.1966 14.9649C13.1669 14.6588 13.1015 14.3556 12.9254 14.0698C12.7295 13.7516 12.4477 13.4874 12.1084 13.3036C11.8036 13.1387 11.4801 13.0772 11.1535 13.0495C10.8447 13.0233 10.4683 13.0233 10.032 13.0233H9.96797C9.53172 13.0233 9.15528 13.0233 8.84642 13.0495C8.5198 13.0772 8.19645 13.1387 7.89162 13.3036C7.55225 13.4874 7.27044 13.7516 7.07451 14.0698C6.89853 14.3556 6.83298 14.6588 6.80339 14.9649C6.77539 15.2545 6.77541 15.6075 6.77543 16.0166V18.5804C6.19329 18.5622 5.69032 18.5303 5.24832 18.4746C4.25011 18.3488 3.67499 18.1128 3.2551 17.7192C2.8352 17.3255 2.58351 16.7862 2.44931 15.8503C2.31222 14.8944 2.31065 13.6343 2.31065 11.8605V10.4208C2.75997 10.5986 3.25586 10.6977 3.7806 10.6977C5.04454 10.6977 6.17462 10.1131 6.8628 9.20543C7.56676 10.106 8.70335 10.6977 9.99982 10.6977C11.2963 10.6977 12.433 10.1059 13.137 9.20515C13.8251 10.1131 14.9553 10.6977 16.2194 10.6977ZM8.26372 18.6028C8.64908 18.6046 9.06152 18.6047 9.50393 18.6047H10.4961C10.9385 18.6047 11.351 18.6046 11.7363 18.6028V16.0465C11.7363 15.599 11.7355 15.31 11.7144 15.0909C11.6942 14.8815 11.66 14.8055 11.6366 14.7675C11.5713 14.6614 11.4774 14.5733 11.3643 14.5121C11.3237 14.4902 11.2426 14.4582 11.0192 14.4391C10.7856 14.4193 10.4774 14.4186 10 14.4186C9.52269 14.4186 9.21442 14.4193 8.98076 14.4391C8.75742 14.4582 8.67626 14.4902 8.63578 14.5121C8.52267 14.5733 8.42872 14.6614 8.36333 14.7675C8.34002 14.8055 8.30579 14.8815 8.28555 15.0909C8.26441 15.31 8.26372 15.599 8.26372 16.0465V18.6028ZM6.6971 1.39539H5.45356C4.50657 1.39539 4.1786 1.40149 3.91257 1.46987C3.30203 1.62679 2.79124 2.01938 2.50738 2.54993C2.3837 2.78109 2.313 3.08143 2.12728 3.95205L1.53403 6.73307C1.2505 8.06224 2.33483 9.30236 3.7806 9.30236C4.95763 9.30236 5.94316 8.46618 6.06028 7.36807L6.12833 6.73003L6.13228 6.69095L6.6971 1.39539ZM7.6101 6.8605L8.19298 1.39539H11.8068L12.3864 6.82979C12.5276 8.15362 11.4188 9.30236 9.99982 9.30236C8.59173 9.30236 7.48914 8.17129 7.6101 6.8605ZM16.0874 1.46987C15.8214 1.40149 15.4934 1.39539 14.5465 1.39539H13.3027L13.9397 7.36807C14.0568 8.46618 15.0423 9.30236 16.2194 9.30236C17.6652 9.30236 18.7495 8.06224 18.4659 6.73307L17.8727 3.95205C17.687 3.08143 17.6163 2.78109 17.4926 2.54993C17.2088 2.01938 16.698 1.62679 16.0874 1.46987Z" fill="black"/>
</svg>
