<svg width="27" height="27" viewBox="0 0 27 27" fill="none" xmlns="http://www.w3.org/2000/svg">
<path d="M19.1565 0H7.8435C2.9295 0 0 2.9295 0 7.8435V19.1565C0 24.0705 2.9295 27 7.8435 27H19.1565C24.0705 27 27 24.0705 27 19.1565V7.8435C27 2.9295 24.0705 0 19.1565 0ZM10.7595 17.415L7.722 20.4525C7.5195 20.655 7.263 20.7495 7.0065 20.7495C6.75 20.7495 6.48 20.655 6.291 20.4525L5.2785 19.44C4.8735 19.0485 4.8735 18.4005 5.2785 18.009C5.67 17.6175 6.3045 17.6175 6.7095 18.009L7.0065 18.306L9.3285 15.984C9.72 15.5925 10.3545 15.5925 10.7595 15.984C11.151 16.3755 11.151 17.0235 10.7595 17.415ZM10.7595 7.965L7.722 11.0025C7.5195 11.205 7.263 11.2995 7.0065 11.2995C6.75 11.2995 6.48 11.205 6.291 11.0025L5.2785 9.99C4.8735 9.5985 4.8735 8.9505 5.2785 8.559C5.67 8.1675 6.3045 8.1675 6.7095 8.559L7.0065 8.856L9.3285 6.534C9.72 6.1425 10.3545 6.1425 10.7595 6.534C11.151 6.9255 11.151 7.5735 10.7595 7.965ZM21.006 19.737H13.9185C13.365 19.737 12.906 19.278 12.906 18.7245C12.906 18.171 13.365 17.712 13.9185 17.712H21.006C21.573 17.712 22.0185 18.171 22.0185 18.7245C22.0185 19.278 21.573 19.737 21.006 19.737ZM21.006 10.287H13.9185C13.365 10.287 12.906 9.828 12.906 9.2745C12.906 8.721 13.365 8.262 13.9185 8.262H21.006C21.573 8.262 22.0185 8.721 22.0185 9.2745C22.0185 9.828 21.573 10.287 21.006 10.287Z" fill="black"/>
</svg>
