<svg width="19" height="27" viewBox="0 0 19 27" fill="none" xmlns="http://www.w3.org/2000/svg">
<path d="M9.50237 0C5.96536 0 3.08984 2.87551 3.08984 6.41253C3.08984 9.88204 5.80336 12.6901 9.34037 12.8116C9.44837 12.7981 9.55637 12.7981 9.63737 12.8116C9.66437 12.8116 9.67787 12.8116 9.70487 12.8116C9.71837 12.8116 9.71837 12.8116 9.73187 12.8116C13.1879 12.6901 15.9014 9.88204 15.9149 6.41253C15.9149 2.87551 13.0394 0 9.50237 0Z" fill="black"/>
<path d="M16.362 16.4023C12.5955 13.8913 6.45303 13.8913 2.65951 16.4023C0.945004 17.5498 0 19.1023 0 20.7628C0 22.4233 0.945004 23.9623 2.64601 25.0963C4.53602 26.3653 7.01998 26.9998 9.50399 26.9998C11.988 26.9998 14.472 26.3653 16.362 25.0963C18.063 23.9488 19.008 22.4098 19.008 20.7358C18.9945 19.0753 18.063 17.5363 16.362 16.4023Z" fill="black"/>
</svg>
