<svg width="27" height="27" viewBox="0 0 27 27" fill="none" xmlns="http://www.w3.org/2000/svg">
<path d="M20.4164 7.5842C20.3244 7.57105 20.2324 7.57105 20.1404 7.5842C18.1031 7.51848 16.4863 5.84917 16.4863 3.79867C16.4863 1.70874 18.1819 0 20.285 0C22.3749 0 24.0837 1.6956 24.0837 3.79867C24.0705 5.84917 22.4538 7.51848 20.4164 7.5842Z" fill="black"/>
<path d="M24.7057 16.6937C23.2335 17.6795 21.1699 18.0475 19.264 17.7978C19.7634 16.72 20.0263 15.5238 20.0395 14.262C20.0395 12.9476 19.7503 11.6989 19.1982 10.6079C21.1436 10.345 23.2072 10.7131 24.6925 11.6989C26.7693 13.0659 26.7693 15.3135 24.7057 16.6937Z" fill="black"/>
<path d="M5.84159 7.5842C5.93359 7.57105 6.0256 7.57105 6.11761 7.5842C8.15496 7.51848 9.7717 5.84917 9.7717 3.79867C9.7717 1.6956 8.0761 0 5.97303 0C3.8831 0 2.1875 1.6956 2.1875 3.79867C2.1875 5.84917 3.80424 7.51848 5.84159 7.5842Z" fill="black"/>
<path d="M5.98718 14.2622C5.98718 15.5372 6.26321 16.7465 6.76269 17.8375C4.90936 18.0346 2.97716 17.6403 1.55759 16.7071C-0.519196 15.3269 -0.519196 13.0793 1.55759 11.6991C2.96402 10.7527 4.94879 10.3715 6.81526 10.5819C6.27635 11.686 5.98718 12.9347 5.98718 14.2622Z" fill="black"/>
<path d="M13.3077 18.231C13.2026 18.2178 13.0843 18.2178 12.966 18.231C10.5475 18.1521 8.61523 16.1673 8.61523 13.7225C8.62838 11.2251 10.6395 9.20093 13.15 9.20093C15.6474 9.20093 17.6716 11.2251 17.6716 13.7225C17.6585 16.1673 15.7394 18.1521 13.3077 18.231Z" fill="black"/>
<path d="M9.03643 20.9525C7.05166 22.2801 7.05166 24.462 9.03643 25.7765C11.2973 27.288 15.0039 27.288 17.2647 25.7765C19.2495 24.4489 19.2495 22.267 17.2647 20.9525C15.0171 19.441 11.3104 19.441 9.03643 20.9525Z" fill="black"/>
</svg>
